<svg xmlns="http://www.w3.org/2000/svg" width="24.33" height="26" viewBox="0 0 24.33 26">
  <g id="Group_110" data-name="Group 110" transform="translate(-1366 -4562)">
    <g id="path16" transform="translate(-5.304 3685.977)" fill="#394855">
      <path d="M 1389.29736328125 892.7184448242188 L 1385.553100585938 888.99267578125 L 1389.29833984375 885.2102661132813 C 1392.330444335938 886.8824462890625 1394.368530273438 887.9999389648438 1394.764404296875 888.2072143554688 C 1395.046264648438 888.3587646484375 1395.385009765625 888.6082763671875 1395.384155273438 888.9285278320313 C 1395.383422851563 889.2457275390625 1395.0634765625 889.5606689453125 1394.765502929688 889.7199096679688 C 1394.609619140625 889.79833984375 1393.497436523438 890.4098510742188 1391.820678710938 891.331787109375 C 1391.075561523438 891.7413940429688 1390.2216796875 892.2108764648438 1389.29736328125 892.7184448242188 Z" stroke="none"/>
      <path d="M 1389.341064453125 892.4092407226563 C 1390.202392578125 891.9362182617188 1390.99951171875 891.4979248046875 1391.7001953125 891.1126708984375 C 1393.568115234375 890.085693359375 1394.487670898438 889.5804443359375 1394.650268554688 889.498046875 C 1394.921630859375 889.3521728515625 1395.1337890625 889.1025390625 1395.134155273438 888.9279174804688 C 1395.134521484375 888.7772216796875 1394.956420898438 888.5947265625 1394.6455078125 888.4271240234375 C 1394.248413085938 888.218994140625 1392.277954101563 887.138671875 1389.343139648438 885.5203857421875 L 1385.90625 888.9913330078125 L 1389.341064453125 892.4092407226563 M 1389.253662109375 893.0276489257813 L 1385.199951171875 888.9939575195313 L 1389.253662109375 884.9000854492188 C 1392.177978515625 886.5130615234375 1394.457153320313 887.7640991210938 1394.88037109375 887.9857177734375 C 1396.191650390625 888.6909790039063 1395.525512695313 889.598876953125 1394.88037109375 889.9419555664063 C 1394.6787109375 890.0422973632813 1392.339477539063 891.3333740234375 1389.253662109375 893.0276489257813 Z" stroke="none" fill="#9dadbc"/>
    </g>
    <g id="path23" transform="translate(1268.488 3281.971)" fill="#394855">
      <path d="M 99.23165893554688 1305.62646484375 L 111.408821105957 1293.353881835938 L 115.0485000610352 1296.976440429688 C 110.1326217651367 1299.67724609375 103.5437698364258 1303.278564453125 100.6982879638672 1304.833740234375 C 100.0355911254883 1305.196044921875 99.58769989013672 1305.440795898438 99.42819976806641 1305.528198242188 C 99.36055755615234 1305.565307617188 99.29510498046875 1305.598022460938 99.23165893554688 1305.62646484375 Z" stroke="none"/>
      <path d="M 111.4099273681641 1293.707641601563 L 100.5994110107422 1304.602905273438 C 103.3994903564453 1303.072509765625 109.7662963867188 1299.592529296875 114.6354827880859 1296.918090820313 L 111.4099273681641 1293.707641601563 M 111.40771484375 1293 L 115.4614944458008 1297.034790039063 C 109.3702774047852 1300.382202148438 100.3949813842773 1305.28369140625 99.54830169677734 1305.747436523438 C 99.21138763427734 1305.932373046875 98.91722106933594 1306.018920898438 98.65287017822266 1306.018920898438 C 98.60080718994141 1306.018920898438 98.54985809326172 1306.015502929688 98.50000762939453 1306.008911132813 L 111.40771484375 1293 Z" stroke="none" fill="#9dadbc"/>
    </g>
    <g id="path30" transform="translate(1270.468 4562.017)" fill="#394855">
      <path d="M 109.4274826049805 12.60018730163574 L 97.13682556152344 0.289511650800705 C 97.24214172363281 0.3211987018585205 97.3443603515625 0.3660020232200623 97.44094085693359 0.4232190847396851 L 97.44583129882813 0.4261190891265869 L 97.45084381103516 0.4287890791893005 C 98.27696228027344 0.8687756657600403 110.9678192138672 7.79356050491333 113.0693283081055 8.940325736999512 L 109.4274826049805 12.60018730163574 Z" stroke="none"/>
      <path d="M 109.4271926879883 12.24604988098145 L 112.6570892333984 9.000175476074219 C 110.3184585571289 7.724051952362061 101.627571105957 2.98213005065918 98.45782470703125 1.258810520172119 L 109.4271926879883 12.24604988098145 M 109.4277725219727 12.95431900024414 L 96.5 0.005489074625074863 C 96.58390808105469 -0.009231465868651867 96.670166015625 -0.01674865931272507 96.75768280029297 -0.01674865931272507 C 97.02801513671875 -0.01674865931272507 97.30995178222656 0.05504830926656723 97.56836700439453 0.2081290781497955 C 98.47622680664063 0.6916490793228149 113.4815673828125 8.880478858947754 113.4815673828125 8.880478858947754 L 109.4277725219727 12.95431900024414 Z" stroke="none" fill="#9dadbc"/>
    </g>
    <g id="path37" transform="translate(1366 4559.822)" fill="#394855">
      <path d="M 0.9011372923851013 27.91050338745117 C 0.2991108000278473 27.76118087768555 0.2500002980232239 26.89842796325684 0.2500002980232239 26.62503242492676 L 0.2500002980232239 3.732831954956055 C 0.2500002980232239 3.080544710159302 0.4783563911914825 2.6424560546875 0.8967140913009644 2.482387781143188 L 13.54323577880859 15.14952182769775 L 0.9011372923851013 27.91050338745117 Z" stroke="none"/>
      <path d="M 0.8494329452514648 2.788877487182617 C 0.5666017532348633 2.988649368286133 0.5 3.394832611083984 0.5 3.732831954956055 L 0.5 26.62503242492676 C 0.5 26.82568740844727 0.5278949737548828 27.41530227661133 0.8418588638305664 27.61512756347656 L 13.19065189361572 15.15021133422852 L 0.8494329452514648 2.788877487182617 M 0.9680500030517578 2.200002670288086 L 13.89582061767578 15.14884185791016 L 0.9881200790405273 28.17792129516602 C 0.3430805206298828 28.11773300170898 0 27.49276161193848 0 26.62503242492676 C 0 25.37408256530762 0 5.245601654052734 0 3.732831954956055 C 0 2.784841537475586 0.4434003829956055 2.321382522583008 0.9680500030517578 2.200002670288086 Z" stroke="none" fill="#9dadbc"/>
    </g>
  </g>
</svg>
