<svg xmlns="http://www.w3.org/2000/svg" width="119" height="27" viewBox="0 0 119 27">
  <path id="Apple_logo_black" d="M38.211,24.261a14.135,14.135,0,0,1-1.4,2.513,12.769,12.769,0,0,1-1.8,2.176A3.493,3.493,0,0,1,32.7,29.97a5.8,5.8,0,0,1-2.138-.51,6.134,6.134,0,0,0-2.3-.509,6.342,6.342,0,0,0-2.367.509A6.367,6.367,0,0,1,23.848,30a3.289,3.289,0,0,1-2.367-1.046A13.408,13.408,0,0,1,19.6,26.7a15.584,15.584,0,0,1-1.992-3.956,14.486,14.486,0,0,1-.836-4.715,8.61,8.61,0,0,1,1.131-4.5,6.633,6.633,0,0,1,2.368-2.4,6.37,6.37,0,0,1,3.2-.9,7.538,7.538,0,0,1,2.476.576,7.96,7.96,0,0,0,1.964.578,11.752,11.752,0,0,0,2.178-.68,7.2,7.2,0,0,1,2.96-.526,6.285,6.285,0,0,1,4.924,2.592,5.477,5.477,0,0,0-2.9,4.975,5.489,5.489,0,0,0,1.8,4.136,5.923,5.923,0,0,0,1.8,1.181q-.217.628-.459,1.205ZM33.194,4.519a5.547,5.547,0,0,1-1.422,3.638,4.844,4.844,0,0,1-4.024,1.986,4.048,4.048,0,0,1-.03-.493,5.7,5.7,0,0,1,1.508-3.676,5.808,5.808,0,0,1,1.838-1.38,5.479,5.479,0,0,1,2.1-.6,4.723,4.723,0,0,1,.027.52Z" transform="translate(-16.77 -2.999)" fill="#394855"/>
  <text id="App_Store" data-name="App Store" transform="translate(39 19)" fill="#394855" font-size="18" font-family="SegoeUI, Segoe UI"><tspan x="0" y="0">App Store</tspan></text>
</svg>
