<svg xmlns="http://www.w3.org/2000/svg" width="26" height="26" viewBox="0 0 26 26">
  <path id="Path_257" data-name="Path 257" d="M31,18c-3.531,0-3.974.015-5.36.079a9.54,9.54,0,0,0-3.155.6,6.65,6.65,0,0,0-3.8,3.8,9.5,9.5,0,0,0-.6,3.155C18.016,27.026,18,27.469,18,31s.016,3.972.079,5.359a9.554,9.554,0,0,0,.6,3.155,6.653,6.653,0,0,0,3.8,3.8,9.548,9.548,0,0,0,3.156.6c1.387.063,1.829.079,5.36.079s3.973-.015,5.359-.079a9.554,9.554,0,0,0,3.157-.6,6.661,6.661,0,0,0,3.8-3.8,9.636,9.636,0,0,0,.6-3.155C43.983,34.973,44,34.531,44,31s-.016-3.974-.079-5.36a9.631,9.631,0,0,0-.6-3.155,6.651,6.651,0,0,0-3.8-3.8,9.57,9.57,0,0,0-3.158-.6C34.97,18.015,34.529,18,31,18Zm-1.166,2.343H31c3.471,0,3.882.012,5.253.075a7.2,7.2,0,0,1,2.414.448,4.308,4.308,0,0,1,2.467,2.467,7.183,7.183,0,0,1,.448,2.413c.062,1.37.076,1.782.076,5.251s-.014,3.881-.076,5.251a7.19,7.19,0,0,1-.448,2.413,4.311,4.311,0,0,1-2.467,2.466,7.171,7.171,0,0,1-2.414.448c-1.37.062-1.782.076-5.253.076s-3.883-.014-5.253-.076a7.211,7.211,0,0,1-2.414-.448,4.307,4.307,0,0,1-2.468-2.466,7.183,7.183,0,0,1-.448-2.413c-.062-1.37-.075-1.782-.075-5.254s.012-3.881.075-5.251a7.2,7.2,0,0,1,.448-2.414,4.308,4.308,0,0,1,2.468-2.468,7.182,7.182,0,0,1,2.414-.448c1.2-.054,1.664-.07,4.087-.073ZM37.94,22.5a1.56,1.56,0,1,0,1.56,1.559A1.56,1.56,0,0,0,37.94,22.5ZM31,24.324A6.675,6.675,0,1,0,37.676,31,6.676,6.676,0,0,0,31,24.324Zm0,2.343A4.333,4.333,0,1,1,26.668,31,4.333,4.333,0,0,1,31,26.667Z" transform="translate(-18 -18)" fill="#394855"/>
</svg>
