<svg xmlns="http://www.w3.org/2000/svg" xmlns:xlink="http://www.w3.org/1999/xlink" width="1198" height="680" viewBox="0 0 1198 680">
  <defs>
    <clipPath id="clip-path">
      <rect id="Rectangle_2" data-name="Rectangle 2" width="1198" height="680" transform="translate(562 3632)" fill="#fff"/>
    </clipPath>
  </defs>
  <g id="Group_81" data-name="Group 81" transform="translate(-562 -3632)">
    <g id="Mask_Group_1" data-name="Mask Group 1" clip-path="url(#clip-path)">
      <g id="Group_45" data-name="Group 45" transform="translate(-15.413 -1891.772)">
        <rect id="Rectangle_586" data-name="Rectangle 586" width="1503.808" height="2674.772" transform="translate(562 4414)" fill="#ddd"/>
        <path id="Intersection_2" data-name="Intersection 2" d="M962.341,2674.772l-39.192-111.551-72.659,19.9-10.25,91.654H823.959l25.628-229.429-44.32,5.424-81.4,223.7H689.8l42.808-117.882-97.681-22.911-53.361,136.57,10.553,4.522H562.571l26.531-67.83-106.123-40.7a1195.976,1195.976,0,0,1-52.758,108.53H392.837c48.236-83.209,85.017-177.27,110.043-253.849l-228.527-17.486,45.223,271.335H287.013l-14.469-86.526L141.4,2610.555l-1.205,17.486,27.433,46.728H148.935l-10.853-18.388-1.205,18.388H120.9l4.522-61.5-95.87,16.277,3.317,44.923H.606L0,2666.1V2150.972l28.642-97.863L0,2050.675v-32.07l37.687,3.151L75.07,1893.924,0,1857.721v-58.969l19.9,9.552L89.24,1564.1,23.82,1527.319,0,1600.5v-51.742l8.745-26.864c-2.563-.427-5.537-.927-8.745-1.466v-16.153l13.87,2.24L60.6,1363.009,0,1338.322v-17.451l65.423,26.763,83.815-256.862L0,1104.982v-32.461l224.911-21.245L63.918,866.464c-11,1.05-41.792,4.146-63.918,6.126V856.864l58.793-5.775-6.031-90.142L0,767.676V713.694l46.731-5.809L35.878,639.449C22.737,641.512,10.414,643.461,0,645.074V628.556l33.468-5.089L22.312,554.429,0,557.357V541.18l19.6-2.729L4.522,443.783,0,444.223v-32.05l126.024-12.1-19.9-141.7C72.568,265.308,36.855,270.6,0,274.585V242.4q9.259-.995,18.392-2.119L9.044,112.753,0,111.659V79.119l6.334.773L.606.3H32.865L50.351,235.76c18.692-3.014,36.781-6.031,54.267-9.95L120.9.3h15.981L120.9,221.89c47.637-11.455,89.24-26.83,121.2-47.633,2.111-1.509,4.522-3.317,6.933-4.822L149.238.3H167.93l42.508,72.056,80.5-47.937L287.017.3h32.558l14.473,87.128C355.453,60.9,375.047,31.353,392.837.3H430.22q-6.783,12.663-14.473,25.325l120.9,41.906L562.874.3h29.544l84.418,35.276L689.8.3h34.067l-2.714,7.839,98.587,30.45L823.959.3H840.24l-5.125,43.111,77.178,24.12c10.553-3.014,37.084-10.553,66.931-18.692L962.037,0h16.884c6.334,17.786,11.758,33.763,15.678,44.62,24.723-6.937,49.745-13.87,68.436-18.995L1050.674.3h59.7l5.428,10.553L1152.275.3h114.868c-55.476,15.978-106.726,31.053-137.176,39.8l51.253,104.614,119.686-20.2L1285.532.3h32.258l15.075,119.087,122.4-20.8L1473.359.3h30.45V128.329l-8.142,43.214,8.142,2.4v16.523l-9.95-2.939,9.95,21.5v76.4l-20.5-44.228-44.919,244.8a118.8,118.8,0,0,1,34.973,36.481l30.45-18.321v18.991l-22.914,13.8a121,121,0,0,1,9.647,46.731c0,2.411-.3,4.522-.3,6.933l13.567,2.544v54.488l-29.245-5.479a117.157,117.157,0,0,1-81.1,56.682l-44.919,140.19,155.265,31.143v16.451L1432.355,872.2c-1.808,11.455-5.428,33.464-9.344,57.281l80.8,10.682v16.2l-83.212-11.2c-3.616,22.611-7.236,44.919-9.647,59.392l92.859,17.538v32.6l-98.887-18.481-36.784,168.229,135.671-126.763v22.242l-138.082,128.641,55.173,67.531,82.909-49.22v37.1L1441.4,1321.1l46.428,56.378,15.982-9.451v18.848l-6.031,3.567,6.031,7.377v25.188l-76.276-93.466-160.993,95.57,237.268,42.655v54.435l-62.409-11.164-30.147,179.381,92.557,22.029v16.488l-95.271-22.839-17.789,106.423c39.8,7.509,78.345,15.017,113.06,21.665v32.6l-75.373-14.464-24.12,167.926,73.865,15.075,25.629-106.781v69.584l-9.651,40.21,9.651,1.949v32.833L1400.1,2052.2l-14.17,98.587,117.882,23.256v16.069l-120.293-23.646-17.187,120.592,137.479,23.553v32.656l-142-24.251L1344.924,2437.5l158.885,21.719v32.135l-69.043-9.534-17.486,115.467,73.865-21.4,12.664-67.946v166.53h-31.053l11.759-63.312c-38.593,11.455-103.109,30.147-168.532,49.142l1.808,14.169h-32.258l-.6-5.125c-6.031,1.809-11.758,3.317-17.786,5.125H1152.275l132.051-37.986,11.759-83.212L1083.236,2619.3l27.133,55.472h-59.7l-63.311-129.034L938.524,2559c6.933,19.9,25.625,73.258,40.7,115.771Zm355.45-48.24,82.307-23.817,18.392-122.4-78.387-10.853ZM19.9,2500.512l8.442,113.056,241.487-41.3-16.281-97.079Zm1028.063,47.031L1076,2604.524l80.5-25.325-15.076-58.486Zm-558.651,3.62,105.82,40.4,24.12-61.5L508,2503.829C502.277,2519.507,495.943,2535.181,489.313,2551.163ZM1156.8,2516.49l15.075,58.186,126.623-39.191,8.745-62.106Zm-290.933-73.259-13.567,122.7,127.828-34.973-47.33-96.476Zm-213.751,61.8,91.651,21.406,28.942-80.2-57.883-23.817Zm339.472-72.656,42.205,85.923,278.575-79.592,8.442-58.49-282.191-40.7Zm-472.429,41.3,116.073,27.13,67.534-88.936L637.641,2300.93l-66.325-1.808A1770.133,1770.133,0,0,1,519.156,2473.682Zm-508-93.159,6.33,87.731,230.938-25.022-13.567-81.7ZM811.6,2434.187l113.962-14.772-37.986-77.181a116.589,116.589,0,0,1-37.084,6.031,60.17,60.17,0,0,1-7.536-.3Zm-86.525-25.026,53.361,22.009,32.865-90.142a107.586,107.586,0,0,1-25.026-12.361Zm208.023-95.57,49.445,100.7,74.767-147.123-91.65-15.678A116.12,116.12,0,0,1,933.1,2313.591Zm-661.457,73.262L508,2404.942c14.169-44.923,24.419-82.306,30.45-106.726l-282.794-8.138Zm441.979,11.455,60.3-79.289a107,107,0,0,1-14.173-14.472l-103.106-3.014ZM10.254,2364.845l222.193-18.995-9.348-56.375L4.223,2283.141Zm1194.784-17.486,117.878,16.884,7.236-50.651L1216.8,2294.6Zm-158.885-22.915,142.9,20.5,12.062-53.365-127.529-21.4Zm-259.277-93.459a63.615,63.615,0,1,0,63.615-63.615C815.517,2167.371,787.178,2196.013,786.875,2230.985Zm367.212,20.2,180.587,30.75,9.045-62.406-178.176-33.467Zm-497.754-3.017,78.99,2.111a82.2,82.2,0,0,1-1.509-19.295,127.11,127.11,0,0,1,1.509-18.691l-66.928-32.259ZM520.665,2174.91l-8.741,69.039,127.828,3.616,13.264-74.767-101.3-48.843Zm433.234,1.808a112.826,112.826,0,0,1,12.964,42.508l155.565,26.531,35.879-203.5Zm-697.636,59.994,239.679,6.934,8.142-65.12-227.322-49.142Zm-246.01-6.933,213.448,6.031,7.839-41L26.834,2173.4Zm1158-59.7,177.873,33.767,6.633-47.334-166.72-86.222ZM139.89,2168.879l94.668,9.95,36.478-190.541L192.349,1950.3ZM31.659,2157.723l92.253,9.647,53.664-224-73.262-35.276Zm391.025-13.263,86.222,18.692,28.039-46.428-78.989-37.986Zm507.095.6a124.7,124.7,0,0,1,15.678,17.786l216.768-142.3,2.714-15.678-178.479-36.178ZM603.271,2089.59l152.251,73.258a118,118,0,0,1,38.289-34.067l-25.026-99.792ZM279.78,2113.407,406.4,2140.84l37.084-69.339-142.6-68.74Zm909.276-59.7,166.121,85.923,13.263-93.762L1196.6,2011.2ZM788.986,1890l56.678,224h4.826a112.219,112.219,0,0,1,31.959,4.522l63.008-197.474-28.642-70.847ZM496.848,2038.034l86.525,41.909,110.346-40.4-20.8-74.767Zm159.484-192.046,52.159,187.524,56.375-20.5-47.933-190.238ZM345.5,1965.075l132.051,63.615,61.8-25.625L486.9,1911.111Zm856.517,14.473,170.943,34.669,24.12-167.926-165.818-31.959ZM501.973,1905.08l52.156,91.65L668.394,1949.1l-27.133-97.378Zm494.434,32.861,174.26,35.276,29.245-164.912-152.551-29.245Zm-765.166-28.036,74.467,35.875,155.565-59.392-180.59-123.909Zm638.846-218.277L953.3,1897.241l94.967-296.357ZM49.445,1822.474,202.3,1896.036,252.344,1746.2l-160.39-73.561Zm347.611-135.667-18.991,123,101.3,69.646,61.5-23.517L589.4,1608.42c-43.111-15.076-93.159-32.562-136.873-47.937Zm328.619-48.539,59.7,236.362,125.717-39.192-90.744-224ZM558.651,1849l150.743-57.584L670.2,1636.459c-16.281-5.731-39.192-13.87-65.423-22.915Zm694.019-63.312c39.8,7.536,81.4,15.675,122.1,23.514l50.651-301.183-25.928-4.822ZM286.111,1746.8l77.481,53.062,16.58-108.234-72.959-8.741Zm771.2,1.505c35.878,6.937,102.806,19.6,179.082,34.37l11.156-21.406L1096.8,1624.7Zm126.323-66.625,71.151,64.817,127.828-246.01-81.4-14.772ZM96.176,1656.959l161.292,73.865,18.392-55.173-165.216-69.039Zm738.033-53.968,29.847,73.865,187.827-95.57-168.532-43.111Zm-521.268,64.82,71.753,8.442,52.762-120.9c-33.464-11.759-61.806-21.705-78.084-27.437Zm789.29-59.995,69.339,63.008L1284.326,1482.7l-134.462-24.116Zm-903.551.9,87.431,36.481,42.508-127.226-86.829-26.834Zm522.777,13.87,98.584-28.039,46.128-60.9-178.479-45.526ZM509.509,1563.5l155.568,54.57L628.3,1472.449l-88.637-26.531ZM119.69,1575.559l64.521,26.83,86.825-236.362L186.318,1340.7Zm244.5-63.012,130.243,45.526L524.285,1441.1l-123.912-36.781Zm643.368,24.12,56.378,14.469,28.642-88.936-59.392-19.9ZM166.724,1088.96,28.945,1511.644l64.816,36.478,132.051-464.587Zm740.443,422.381,85.021,21.705,25.928-95.57L946.06,1413.36ZM806.173,1313.268l-59.092,34.067,37.383,132.048,91.351,23.218,80.8-202.3Zm-558.352,162.5c18.089,5.728,62.409,19.6,86.226,26.834l35.875-107.328-83.508-24.723Zm416.35-80.495,14.473,57.584,87.431,22.308-33.468-119.387Zm287.616,3.014,145.618,48.539,46.731-145.618-132.654-52.459Zm-473.631-4.219,141.4,41.906L584.28,1296.684Zm688.288,13.264,51.856,9.348,100.092-59.4c4.825-22.911,15.379-70.548,26.834-123.306l-114.565-27.134ZM318.672,1158.3l-41,176.068,182.4,54.267L580.057,1279.2,547.8,1151.669ZM630.1,1259.9l30.147,119.087L791.7,1303.318c-15.678-21.106-61.5-82-75.673-101Zm707.283,85.623,69.642-41.307-47.936-58.486ZM195.063,1309.951l67.231,19.9,26.228-112.757-61.5-19.6Zm534.228-116.976,78.087,104.012,155.565-13.267,3.014-7.536L806.776,1140.816Zm288.222,40.7,131.748,52.156,30.147-94.365-126.623-46.128Zm-107.029-25.629,61.806,52.459,51.553-129.637-38.892-28.343Zm-295.754-8.442,11.152,43.718,80.195-53.968-28.036-35.272Zm620.757-7.839,113.056,26.531c16.281-73.561,33.464-152.248,40.4-184.81l-97.078-18.089Zm-975.3-111.547-28.942,101.6,60.9,19.594,29.544-126.923Zm509.206,8.139,128.734,109.137,73.865-104.615-104.315-75.37Zm-78.383,56.079c9.044,11.455,21.705,27.433,28.339,35.875l74.467-50.347-37.99-32.258Zm367.508-13.87,125.721,45.526,19.294-60.6c-25.326-12.661-69.343-35.575-114.565-61.5ZM555.338,962.337l51.25,203.5,142-102.2-39.2-130.846ZM338.57,1072.982l-16.281,69.342,221.291-6.633-20.2-80.2Zm542.973-65.423,148.632,107.632,30.753-77.481c-37.687-22.312-73.865-46.128-98.587-67.534a151.324,151.324,0,0,1-12.058-12.058ZM975.3,938.221a92.543,92.543,0,0,0,7.839,7.536c55.776,47.937,176.97,111.851,230.335,138.984L1249.054,973.8,1104.339,827.575Zm-738.639-102.2,25.026,211.943,74.767-7.236-28.339-215.26ZM747.384,948.77l28.639,95.27,72.356-51.856L818.531,914.7Zm-394.948,90.445,163.1-15.375L507.7,992.488,338.57,933.4ZM68.74,759.135l6.33,95.873,152.252,174.863L193.255,743.76Zm1233.073,225.21,93.159,17.486,21.705-132.654-73.258-14.772ZM781.451,773.608l80.495,208.626,69.043-49.745c-41.909-63.611-75.976-169.131-94.368-233.648ZM324.1,823.053l12.062,92.553L502.879,973.8,459.765,802.853Zm166.721-115.77,60.3,239.679,153.457-29.848-68.74-227.621Zm637.944,99.186,131.445,132.957,56.682-177.577-85.32-43.714ZM719.644,857.12l22.914,75.972L812.8,899.329,770,788.683ZM905.36,805.867c14.772,39.495,31.959,78.387,50.651,107.029l50.347-43.414-44.62-85.32Zm71.454-28.036,42.205,80.8,62.106-53.664-54.567-46.432ZM668.091,685.877l45.825,152.248L831.2,678.944c-1.206-4.526-2.411-8.745-3.317-12.664ZM225.21,739.841l9.647,80.2,220.988-32.558-18.692-73.565Zm842.95-103.106-31.053,109.739,56.379,47.937,178.18-152.854a117.141,117.141,0,0,1-11.759-28.339ZM860.137,662.36c7.839,29.544,22.009,78.387,39.8,128.132l121.8-47.031,29.548-104.614Zm384.395,44.62,77.178,39.495,16.584-51.253a119.4,119.4,0,0,1-47.034-28.339ZM51.856,637.035l10.853,68.74L184.21,691l-16.883-71.753C143.51,622.865,94.971,630.4,51.856,637.035Zm164.01,50.048,218.577-26.834L426,628.293,199.585,617.74Zm269.826-33.164,133.859-16.281L538.754,508Zm823.959-70.548a63.613,63.613,0,1,0,63.611-63.611A63.626,63.626,0,0,0,1309.652,583.37ZM549.307,494.733l87.731,140.8,51.557-6.334.3-156.167ZM460.068,630.7l81.4-223.1L388.314,353.641ZM705.175,470.617l-.3,156.77,170.943-20.8L857.726,446.8Zm-666.886,81.7,10.853,68.74,114.565-17.486-15.375-66.026ZM264.406,419.061l33.161,187.224,124.515,5.728-52.459-202.9ZM155.868,429.314l40.1,172.145,85.02,3.92-32.861-184.81ZM883.954,537.848l7.54,66.628,96.173-11.759-10.25-66.329ZM994.3,425.694l25.322,163.1,109.141-13.267-25.629-166.721ZM1119.114,406.4l25.928,167.024L1259,559.554a117.236,117.236,0,0,1,35.575-62.406L1240.912,387.4ZM20.5,442.278,35.575,536.34l108.837-14.473-20.8-89.539Zm852.9,2.411,8.741,77.178L975,510.715l-12.358-79.9Zm315.352-284.905,152.851,311.133a7.07,7.07,0,0,0,2.414-.6l-41-329.825Zm145.917-24.719,41,331.633c3.92.3,7.536.6,11.455.9l64.82-352.133ZM555.638,461.573l137.176-21.406,57.281-205.01L651.81,198.073ZM710.3,437.453l83.512-12.964L832.7,266.51,765.17,240.885Zm100.4-15.375,125.418-19.6-12.964-101.3L847.476,272.54ZM131.752,327.713l9.947,70.847,219.483-21.1L337.364,286.71Zm828.178,5.728,8.139,63.914,257.772-40.1-33.164-67.834ZM468.206,364.794,546.9,392.53l33.464-91.95-84.418-34.973Zm-84.717-30.147,69.646,24.723L481.17,259.277,349.725,204.4ZM929.779,96.173l28.039,221.291,105.52-19.9c-12.361-35.875-58.187-172.748-73.561-217.974ZM259.58,201.39c-36.481,23.517-83.811,41-137.779,53.967l7.839,56.678,203.8-40.7L306.008,165.212A350.063,350.063,0,0,1,259.58,201.39ZM1005.452,75.37l73.865,219.483,106.123-20.2L1077.808,55.169ZM500.465,249.929l85.32,35.575,53.967-148.332-98.284-34.067Zm269.83-24.12,150.743,57.284-12.361-97.681L805.87,148.029ZM332.239,138.984,344.3,185.412l141.1,58.486,41-145.917L398.261,53.664C378.064,84.414,356.355,113.356,332.239,138.984Zm325,43.411,98.284,37.387,38.589-85.02,19.294-64.517L710,38.286ZM811.6,132.953l94.967,34.37-9.044-70.851L828.784,75.066ZM218.577,86.222l43.717,73.865a403.5,403.5,0,0,0,44.62-41L293.95,41.3ZM551.718,72.656l99.19,34.37,20.5-56.378-95.57-39.794ZM319.575,2674.769ZM167.626,2674.769ZM1317.79,2674.469ZM32.865,2674.469Z" transform="translate(566.009 4414)" fill="#fff"/>
      </g>
    </g>
    <g id="_place" data-name=" place" transform="translate(315 740)">
      <rect id="Path" width="132" height="132" transform="translate(780 3166)" fill="rgba(0,0,0,0)"/>
      <path id="Icon" d="M38.528,107.086a5.479,5.479,0,0,1-4.21-1.977A243.225,243.225,0,0,1,13.406,75.89C4.51,60.986,0,48.406,0,38.5A38.512,38.512,0,0,1,65.734,11.269,38.254,38.254,0,0,1,77,38.5c0,22.72-23.965,54.149-34.269,66.609A5.467,5.467,0,0,1,38.528,107.086ZM38.5,24.755A13.749,13.749,0,1,0,52.252,38.506,13.766,13.766,0,0,0,38.5,24.755Z" transform="translate(807.499 3176.996)" fill="#0392cf"/>
    </g>
  </g>
</svg>
