<svg id="_place" data-name=" place" xmlns="http://www.w3.org/2000/svg" width="20" height="20" viewBox="0 0 20 20">
  <rect id="Path" width="24" height="24" fill="rgba(0,0,0,0)"/>
  <path id="Icon" d="M6.185,16.539a.894.894,0,0,1-.676-.305,37.645,37.645,0,0,1-3.357-4.513A11.8,11.8,0,0,1,0,5.946,5.8,5.8,0,0,1,1.809,1.741,6.266,6.266,0,0,1,6.18,0a6.266,6.266,0,0,1,4.372,1.741,5.8,5.8,0,0,1,1.809,4.206c0,3.509-3.847,8.363-5.5,10.288A.892.892,0,0,1,6.185,16.539Zm0-12.716A2.169,2.169,0,0,0,3.973,5.947,2.169,2.169,0,0,0,6.18,8.07,2.169,2.169,0,0,0,8.388,5.947,2.169,2.169,0,0,0,6.18,3.823Z" transform="translate(3.82 1.506)" fill="#fff"/>
</svg>
