<svg xmlns="http://www.w3.org/2000/svg" width="42.059" height="26" viewBox="0 0 42.059 26">
  <g id="Mastercard_2019_logo" transform="translate(-5.001 -4.998)">
    <rect id="rect887" width="12.514" height="20.438" transform="translate(19.776 7.778)" fill="#ff5f00"/>
    <path id="path889" d="M21.065,18.071A12.976,12.976,0,0,1,26.03,7.854a13,13,0,1,0,0,20.438,12.976,12.976,0,0,1-4.964-10.221Z" transform="translate(0 -0.072)" fill="#eb001b"/>
    <path id="path891" d="M622.559,318.209v-.419h.18V317.7h-.43v.087h.17v.419Zm.834,0V317.7h-.13l-.152.361-.152-.361h-.13v.505h.094v-.383l.141.329h.1l.141-.329v.383Z" transform="translate(-576.741 -292.156)" fill="#f79e1b"/>
    <path id="path893" d="M346.015,18a13,13,0,0,1-21.03,10.217,13,13,0,0,0,0-20.438A13,13,0,0,1,346.015,18Z" transform="translate(-298.955)" fill="#f79e1b"/>
  </g>
</svg>
