<svg xmlns="http://www.w3.org/2000/svg" width="106.476" height="26" viewBox="0 0 106.476 26">
  <g id="PayPal" transform="translate(0)">
    <path id="Path_231" data-name="Path 231" d="M44.75,6.749H38.858a.818.818,0,0,0-.809.691L35.666,22.549a.491.491,0,0,0,.486.567h2.813a.818.818,0,0,0,.809-.692l.643-4.075a.818.818,0,0,1,.808-.692H43.09c3.881,0,6.121-1.878,6.706-5.6a4.538,4.538,0,0,0-.751-3.8,5.467,5.467,0,0,0-4.295-1.5Zm.68,5.518c-.322,2.114-1.938,2.114-3.5,2.114h-.889l.624-3.949a.491.491,0,0,1,.485-.414h.408c1.064,0,2.068,0,2.586.607a1.964,1.964,0,0,1,.286,1.642ZM62.363,12.2H59.541a.491.491,0,0,0-.485.414l-.125.789-.2-.286c-.611-.887-1.973-1.183-3.332-1.183a6.489,6.489,0,0,0-6.3,5.674,5.326,5.326,0,0,0,1.051,4.334,4.415,4.415,0,0,0,3.554,1.435,5.4,5.4,0,0,0,3.905-1.615l-.126.784a.491.491,0,0,0,.484.569h2.542a.818.818,0,0,0,.809-.692l1.525-9.657a.489.489,0,0,0-.483-.567ZM58.43,17.691a3.145,3.145,0,0,1-3.183,2.694,2.186,2.186,0,0,1-2.337-2.743,3.158,3.158,0,0,1,3.162-2.716,2.38,2.38,0,0,1,1.882.769,2.442,2.442,0,0,1,.477,2ZM77.39,12.2H74.555a.822.822,0,0,0-.678.359l-3.911,5.76-1.658-5.535a.821.821,0,0,0-.786-.584H64.737a.491.491,0,0,0-.466.65l3.123,9.165-2.936,4.145a.491.491,0,0,0,.4.775H67.69a.818.818,0,0,0,.673-.352L77.793,12.97a.491.491,0,0,0-.4-.771Z" transform="translate(-4.937 -0.934)" fill="#253b80"/>
    <path id="Path_232" data-name="Path 232" d="M93.531,6.749H87.638a.818.818,0,0,0-.808.691L84.447,22.549a.49.49,0,0,0,.484.567h3.024a.573.573,0,0,0,.565-.484l.676-4.283A.818.818,0,0,1,90,17.657h1.864c3.882,0,6.121-1.878,6.707-5.6a4.535,4.535,0,0,0-.752-3.8,5.461,5.461,0,0,0-4.293-1.5Zm.68,5.518c-.321,2.114-1.937,2.114-3.5,2.114h-.888l.625-3.949a.489.489,0,0,1,.484-.414h.408c1.063,0,2.068,0,2.586.607a1.964,1.964,0,0,1,.285,1.642Zm16.932-.068h-2.82a.488.488,0,0,0-.484.414l-.125.789-.2-.286c-.611-.887-1.972-1.183-3.332-1.183a6.488,6.488,0,0,0-6.3,5.674,5.329,5.329,0,0,0,1.05,4.334,4.417,4.417,0,0,0,3.554,1.435,5.4,5.4,0,0,0,3.905-1.615l-.126.784a.491.491,0,0,0,.486.569H109.3a.818.818,0,0,0,.808-.692l1.526-9.657a.492.492,0,0,0-.487-.567Zm-3.933,5.492a3.143,3.143,0,0,1-3.183,2.694,2.186,2.186,0,0,1-2.337-2.743,3.16,3.16,0,0,1,3.162-2.716,2.38,2.38,0,0,1,1.882.769A2.43,2.43,0,0,1,107.21,17.691ZM114.47,7.163l-2.418,15.386a.49.49,0,0,0,.484.567h2.431a.817.817,0,0,0,.809-.692l2.385-15.108a.491.491,0,0,0-.484-.568h-2.723A.492.492,0,0,0,114.47,7.163Z" transform="translate(-11.69 -0.934)" fill="#179bd7"/>
    <path id="Path_233" data-name="Path 233" d="M6.407,25.26,6.858,22.4l-1-.023H1.061L4.392,1.255a.272.272,0,0,1,.271-.231h8.081c2.683,0,4.534.558,5.5,1.66a3.785,3.785,0,0,1,.881,1.652,5.963,5.963,0,0,1,.006,2.278l-.01.066v.582l.453.257a3.179,3.179,0,0,1,.918.7,3.257,3.257,0,0,1,.744,1.67,7.063,7.063,0,0,1-.106,2.423,8.531,8.531,0,0,1-.993,2.742,5.641,5.641,0,0,1-1.572,1.723,6.379,6.379,0,0,1-2.118.955,10.561,10.561,0,0,1-2.647.306h-.629a1.892,1.892,0,0,0-1.87,1.6l-.047.258-.8,5.044-.036.185a.159.159,0,0,1-.05.108.134.134,0,0,1-.083.03Z" transform="translate(-0.147 -0.142)" fill="#253b80"/>
    <path id="Path_234" data-name="Path 234" d="M20.714,7.667q-.036.231-.083.474c-1.066,5.472-4.712,7.362-9.369,7.362H8.892a1.151,1.151,0,0,0-1.138.975l-1.214,7.7L6.2,26.359a.607.607,0,0,0,.6.7H11a1.012,1.012,0,0,0,1-.853l.041-.214.792-5.025.051-.276a1.011,1.011,0,0,1,1-.855h.629c4.074,0,7.264-1.654,8.2-6.441.389-2,.188-3.669-.843-4.844a4.021,4.021,0,0,0-1.151-.887Z" transform="translate(-0.857 -1.061)" fill="#179bd7"/>
    <path id="Path_235" data-name="Path 235" d="M19.851,7.089a8.406,8.406,0,0,0-1.036-.23,13.168,13.168,0,0,0-2.09-.152H10.39a1.01,1.01,0,0,0-1,.855L8.044,16.1l-.039.249a1.151,1.151,0,0,1,1.138-.975h2.371c4.657,0,8.3-1.891,9.369-7.362.032-.162.059-.32.083-.474a5.681,5.681,0,0,0-.876-.37q-.119-.039-.239-.075Z" transform="translate(-1.108 -0.929)" fill="#222d65"/>
    <path id="Path_236" data-name="Path 236" d="M8.283,6.633a1.007,1.007,0,0,1,1-.854h6.334a13.168,13.168,0,0,1,2.09.152,8.406,8.406,0,0,1,1.276.3,5.767,5.767,0,0,1,.876.37,5.168,5.168,0,0,0-1.1-4.646C17.557.588,15.381,0,12.6,0H4.516A1.155,1.155,0,0,0,3.375.976L.009,22.313a.694.694,0,0,0,.685.8H5.683l1.253-7.948L8.283,6.633Z" transform="translate(0 0)" fill="#253b80"/>
  </g>
</svg>
