<svg xmlns="http://www.w3.org/2000/svg" xmlns:xlink="http://www.w3.org/1999/xlink" width="521.474" height="540.338" viewBox="0 0 521.474 540.338">
  <defs>
    <clipPath id="clip-path">
      <rect width="380" height="419" fill="none"/>
    </clipPath>
  </defs>
  <g id="Repeat_Grid_2" data-name="Repeat Grid 2" transform="translate(177.077) rotate(25)" clip-path="url(#clip-path)">
    <g transform="translate(-961 -517)">
      <circle id="Ellipse_3" data-name="Ellipse 3" cx="5" cy="5" r="5" transform="translate(961 517)" fill="#e6f4f1"/>
    </g>
    <g transform="translate(-931 -517)">
      <circle id="Ellipse_3-2" data-name="Ellipse 3" cx="5" cy="5" r="5" transform="translate(961 517)" fill="#e6f4f1"/>
    </g>
    <g transform="translate(-901 -517)">
      <circle id="Ellipse_3-3" data-name="Ellipse 3" cx="5" cy="5" r="5" transform="translate(961 517)" fill="#e6f4f1"/>
    </g>
    <g transform="translate(-871 -517)">
      <circle id="Ellipse_3-4" data-name="Ellipse 3" cx="5" cy="5" r="5" transform="translate(961 517)" fill="#e6f4f1"/>
    </g>
    <g transform="translate(-841 -517)">
      <circle id="Ellipse_3-5" data-name="Ellipse 3" cx="5" cy="5" r="5" transform="translate(961 517)" fill="#e6f4f1"/>
    </g>
    <g transform="translate(-811 -517)">
      <circle id="Ellipse_3-6" data-name="Ellipse 3" cx="5" cy="5" r="5" transform="translate(961 517)" fill="#e6f4f1"/>
    </g>
    <g transform="translate(-781 -517)">
      <circle id="Ellipse_3-7" data-name="Ellipse 3" cx="5" cy="5" r="5" transform="translate(961 517)" fill="#e6f4f1"/>
    </g>
    <g transform="translate(-751 -517)">
      <circle id="Ellipse_3-8" data-name="Ellipse 3" cx="5" cy="5" r="5" transform="translate(961 517)" fill="#e6f4f1"/>
    </g>
    <g transform="translate(-721 -517)">
      <circle id="Ellipse_3-9" data-name="Ellipse 3" cx="5" cy="5" r="5" transform="translate(961 517)" fill="#e6f4f1"/>
    </g>
    <g transform="translate(-691 -517)">
      <circle id="Ellipse_3-10" data-name="Ellipse 3" cx="5" cy="5" r="5" transform="translate(961 517)" fill="#e6f4f1"/>
    </g>
    <g transform="translate(-661 -517)">
      <circle id="Ellipse_3-11" data-name="Ellipse 3" cx="5" cy="5" r="5" transform="translate(961 517)" fill="#e6f4f1"/>
    </g>
    <g transform="translate(-631 -517)">
      <circle id="Ellipse_3-12" data-name="Ellipse 3" cx="5" cy="5" r="5" transform="translate(961 517)" fill="#e6f4f1"/>
    </g>
    <g transform="translate(-601 -517)">
      <circle id="Ellipse_3-13" data-name="Ellipse 3" cx="5" cy="5" r="5" transform="translate(961 517)" fill="#e6f4f1"/>
    </g>
    <g transform="translate(-961 -487)">
      <circle id="Ellipse_3-14" data-name="Ellipse 3" cx="5" cy="5" r="5" transform="translate(961 517)" fill="#e6f4f1"/>
    </g>
    <g transform="translate(-931 -487)">
      <circle id="Ellipse_3-15" data-name="Ellipse 3" cx="5" cy="5" r="5" transform="translate(961 517)" fill="#e6f4f1"/>
    </g>
    <g transform="translate(-901 -487)">
      <circle id="Ellipse_3-16" data-name="Ellipse 3" cx="5" cy="5" r="5" transform="translate(961 517)" fill="#e6f4f1"/>
    </g>
    <g transform="translate(-871 -487)">
      <circle id="Ellipse_3-17" data-name="Ellipse 3" cx="5" cy="5" r="5" transform="translate(961 517)" fill="#e6f4f1"/>
    </g>
    <g transform="translate(-841 -487)">
      <circle id="Ellipse_3-18" data-name="Ellipse 3" cx="5" cy="5" r="5" transform="translate(961 517)" fill="#e6f4f1"/>
    </g>
    <g transform="translate(-811 -487)">
      <circle id="Ellipse_3-19" data-name="Ellipse 3" cx="5" cy="5" r="5" transform="translate(961 517)" fill="#e6f4f1"/>
    </g>
    <g transform="translate(-781 -487)">
      <circle id="Ellipse_3-20" data-name="Ellipse 3" cx="5" cy="5" r="5" transform="translate(961 517)" fill="#e6f4f1"/>
    </g>
    <g transform="translate(-751 -487)">
      <circle id="Ellipse_3-21" data-name="Ellipse 3" cx="5" cy="5" r="5" transform="translate(961 517)" fill="#e6f4f1"/>
    </g>
    <g transform="translate(-721 -487)">
      <circle id="Ellipse_3-22" data-name="Ellipse 3" cx="5" cy="5" r="5" transform="translate(961 517)" fill="#e6f4f1"/>
    </g>
    <g transform="translate(-691 -487)">
      <circle id="Ellipse_3-23" data-name="Ellipse 3" cx="5" cy="5" r="5" transform="translate(961 517)" fill="#e6f4f1"/>
    </g>
    <g transform="translate(-661 -487)">
      <circle id="Ellipse_3-24" data-name="Ellipse 3" cx="5" cy="5" r="5" transform="translate(961 517)" fill="#e6f4f1"/>
    </g>
    <g transform="translate(-631 -487)">
      <circle id="Ellipse_3-25" data-name="Ellipse 3" cx="5" cy="5" r="5" transform="translate(961 517)" fill="#e6f4f1"/>
    </g>
    <g transform="translate(-601 -487)">
      <circle id="Ellipse_3-26" data-name="Ellipse 3" cx="5" cy="5" r="5" transform="translate(961 517)" fill="#e6f4f1"/>
    </g>
    <g transform="translate(-961 -457)">
      <circle id="Ellipse_3-27" data-name="Ellipse 3" cx="5" cy="5" r="5" transform="translate(961 517)" fill="#e6f4f1"/>
    </g>
    <g transform="translate(-931 -457)">
      <circle id="Ellipse_3-28" data-name="Ellipse 3" cx="5" cy="5" r="5" transform="translate(961 517)" fill="#e6f4f1"/>
    </g>
    <g transform="translate(-901 -457)">
      <circle id="Ellipse_3-29" data-name="Ellipse 3" cx="5" cy="5" r="5" transform="translate(961 517)" fill="#e6f4f1"/>
    </g>
    <g transform="translate(-871 -457)">
      <circle id="Ellipse_3-30" data-name="Ellipse 3" cx="5" cy="5" r="5" transform="translate(961 517)" fill="#e6f4f1"/>
    </g>
    <g transform="translate(-841 -457)">
      <circle id="Ellipse_3-31" data-name="Ellipse 3" cx="5" cy="5" r="5" transform="translate(961 517)" fill="#e6f4f1"/>
    </g>
    <g transform="translate(-811 -457)">
      <circle id="Ellipse_3-32" data-name="Ellipse 3" cx="5" cy="5" r="5" transform="translate(961 517)" fill="#e6f4f1"/>
    </g>
    <g transform="translate(-781 -457)">
      <circle id="Ellipse_3-33" data-name="Ellipse 3" cx="5" cy="5" r="5" transform="translate(961 517)" fill="#e6f4f1"/>
    </g>
    <g transform="translate(-751 -457)">
      <circle id="Ellipse_3-34" data-name="Ellipse 3" cx="5" cy="5" r="5" transform="translate(961 517)" fill="#e6f4f1"/>
    </g>
    <g transform="translate(-721 -457)">
      <circle id="Ellipse_3-35" data-name="Ellipse 3" cx="5" cy="5" r="5" transform="translate(961 517)" fill="#e6f4f1"/>
    </g>
    <g transform="translate(-691 -457)">
      <circle id="Ellipse_3-36" data-name="Ellipse 3" cx="5" cy="5" r="5" transform="translate(961 517)" fill="#e6f4f1"/>
    </g>
    <g transform="translate(-661 -457)">
      <circle id="Ellipse_3-37" data-name="Ellipse 3" cx="5" cy="5" r="5" transform="translate(961 517)" fill="#e6f4f1"/>
    </g>
    <g transform="translate(-631 -457)">
      <circle id="Ellipse_3-38" data-name="Ellipse 3" cx="5" cy="5" r="5" transform="translate(961 517)" fill="#e6f4f1"/>
    </g>
    <g transform="translate(-601 -457)">
      <circle id="Ellipse_3-39" data-name="Ellipse 3" cx="5" cy="5" r="5" transform="translate(961 517)" fill="#e6f4f1"/>
    </g>
    <g transform="translate(-961 -427)">
      <circle id="Ellipse_3-40" data-name="Ellipse 3" cx="5" cy="5" r="5" transform="translate(961 517)" fill="#e6f4f1"/>
    </g>
    <g transform="translate(-931 -427)">
      <circle id="Ellipse_3-41" data-name="Ellipse 3" cx="5" cy="5" r="5" transform="translate(961 517)" fill="#e6f4f1"/>
    </g>
    <g transform="translate(-901 -427)">
      <circle id="Ellipse_3-42" data-name="Ellipse 3" cx="5" cy="5" r="5" transform="translate(961 517)" fill="#e6f4f1"/>
    </g>
    <g transform="translate(-871 -427)">
      <circle id="Ellipse_3-43" data-name="Ellipse 3" cx="5" cy="5" r="5" transform="translate(961 517)" fill="#e6f4f1"/>
    </g>
    <g transform="translate(-841 -427)">
      <circle id="Ellipse_3-44" data-name="Ellipse 3" cx="5" cy="5" r="5" transform="translate(961 517)" fill="#e6f4f1"/>
    </g>
    <g transform="translate(-811 -427)">
      <circle id="Ellipse_3-45" data-name="Ellipse 3" cx="5" cy="5" r="5" transform="translate(961 517)" fill="#e6f4f1"/>
    </g>
    <g transform="translate(-781 -427)">
      <circle id="Ellipse_3-46" data-name="Ellipse 3" cx="5" cy="5" r="5" transform="translate(961 517)" fill="#e6f4f1"/>
    </g>
    <g transform="translate(-751 -427)">
      <circle id="Ellipse_3-47" data-name="Ellipse 3" cx="5" cy="5" r="5" transform="translate(961 517)" fill="#e6f4f1"/>
    </g>
    <g transform="translate(-721 -427)">
      <circle id="Ellipse_3-48" data-name="Ellipse 3" cx="5" cy="5" r="5" transform="translate(961 517)" fill="#e6f4f1"/>
    </g>
    <g transform="translate(-691 -427)">
      <circle id="Ellipse_3-49" data-name="Ellipse 3" cx="5" cy="5" r="5" transform="translate(961 517)" fill="#e6f4f1"/>
    </g>
    <g transform="translate(-661 -427)">
      <circle id="Ellipse_3-50" data-name="Ellipse 3" cx="5" cy="5" r="5" transform="translate(961 517)" fill="#e6f4f1"/>
    </g>
    <g transform="translate(-631 -427)">
      <circle id="Ellipse_3-51" data-name="Ellipse 3" cx="5" cy="5" r="5" transform="translate(961 517)" fill="#e6f4f1"/>
    </g>
    <g transform="translate(-601 -427)">
      <circle id="Ellipse_3-52" data-name="Ellipse 3" cx="5" cy="5" r="5" transform="translate(961 517)" fill="#e6f4f1"/>
    </g>
    <g transform="translate(-961 -397)">
      <circle id="Ellipse_3-53" data-name="Ellipse 3" cx="5" cy="5" r="5" transform="translate(961 517)" fill="#e6f4f1"/>
    </g>
    <g transform="translate(-931 -397)">
      <circle id="Ellipse_3-54" data-name="Ellipse 3" cx="5" cy="5" r="5" transform="translate(961 517)" fill="#e6f4f1"/>
    </g>
    <g transform="translate(-901 -397)">
      <circle id="Ellipse_3-55" data-name="Ellipse 3" cx="5" cy="5" r="5" transform="translate(961 517)" fill="#e6f4f1"/>
    </g>
    <g transform="translate(-871 -397)">
      <circle id="Ellipse_3-56" data-name="Ellipse 3" cx="5" cy="5" r="5" transform="translate(961 517)" fill="#e6f4f1"/>
    </g>
    <g transform="translate(-841 -397)">
      <circle id="Ellipse_3-57" data-name="Ellipse 3" cx="5" cy="5" r="5" transform="translate(961 517)" fill="#e6f4f1"/>
    </g>
    <g transform="translate(-811 -397)">
      <circle id="Ellipse_3-58" data-name="Ellipse 3" cx="5" cy="5" r="5" transform="translate(961 517)" fill="#e6f4f1"/>
    </g>
    <g transform="translate(-781 -397)">
      <circle id="Ellipse_3-59" data-name="Ellipse 3" cx="5" cy="5" r="5" transform="translate(961 517)" fill="#e6f4f1"/>
    </g>
    <g transform="translate(-751 -397)">
      <circle id="Ellipse_3-60" data-name="Ellipse 3" cx="5" cy="5" r="5" transform="translate(961 517)" fill="#e6f4f1"/>
    </g>
    <g transform="translate(-721 -397)">
      <circle id="Ellipse_3-61" data-name="Ellipse 3" cx="5" cy="5" r="5" transform="translate(961 517)" fill="#e6f4f1"/>
    </g>
    <g transform="translate(-691 -397)">
      <circle id="Ellipse_3-62" data-name="Ellipse 3" cx="5" cy="5" r="5" transform="translate(961 517)" fill="#e6f4f1"/>
    </g>
    <g transform="translate(-661 -397)">
      <circle id="Ellipse_3-63" data-name="Ellipse 3" cx="5" cy="5" r="5" transform="translate(961 517)" fill="#e6f4f1"/>
    </g>
    <g transform="translate(-631 -397)">
      <circle id="Ellipse_3-64" data-name="Ellipse 3" cx="5" cy="5" r="5" transform="translate(961 517)" fill="#e6f4f1"/>
    </g>
    <g transform="translate(-601 -397)">
      <circle id="Ellipse_3-65" data-name="Ellipse 3" cx="5" cy="5" r="5" transform="translate(961 517)" fill="#e6f4f1"/>
    </g>
    <g transform="translate(-961 -367)">
      <circle id="Ellipse_3-66" data-name="Ellipse 3" cx="5" cy="5" r="5" transform="translate(961 517)" fill="#e6f4f1"/>
    </g>
    <g transform="translate(-931 -367)">
      <circle id="Ellipse_3-67" data-name="Ellipse 3" cx="5" cy="5" r="5" transform="translate(961 517)" fill="#e6f4f1"/>
    </g>
    <g transform="translate(-901 -367)">
      <circle id="Ellipse_3-68" data-name="Ellipse 3" cx="5" cy="5" r="5" transform="translate(961 517)" fill="#e6f4f1"/>
    </g>
    <g transform="translate(-871 -367)">
      <circle id="Ellipse_3-69" data-name="Ellipse 3" cx="5" cy="5" r="5" transform="translate(961 517)" fill="#e6f4f1"/>
    </g>
    <g transform="translate(-841 -367)">
      <circle id="Ellipse_3-70" data-name="Ellipse 3" cx="5" cy="5" r="5" transform="translate(961 517)" fill="#e6f4f1"/>
    </g>
    <g transform="translate(-811 -367)">
      <circle id="Ellipse_3-71" data-name="Ellipse 3" cx="5" cy="5" r="5" transform="translate(961 517)" fill="#e6f4f1"/>
    </g>
    <g transform="translate(-781 -367)">
      <circle id="Ellipse_3-72" data-name="Ellipse 3" cx="5" cy="5" r="5" transform="translate(961 517)" fill="#e6f4f1"/>
    </g>
    <g transform="translate(-751 -367)">
      <circle id="Ellipse_3-73" data-name="Ellipse 3" cx="5" cy="5" r="5" transform="translate(961 517)" fill="#e6f4f1"/>
    </g>
    <g transform="translate(-721 -367)">
      <circle id="Ellipse_3-74" data-name="Ellipse 3" cx="5" cy="5" r="5" transform="translate(961 517)" fill="#e6f4f1"/>
    </g>
    <g transform="translate(-691 -367)">
      <circle id="Ellipse_3-75" data-name="Ellipse 3" cx="5" cy="5" r="5" transform="translate(961 517)" fill="#e6f4f1"/>
    </g>
    <g transform="translate(-661 -367)">
      <circle id="Ellipse_3-76" data-name="Ellipse 3" cx="5" cy="5" r="5" transform="translate(961 517)" fill="#e6f4f1"/>
    </g>
    <g transform="translate(-631 -367)">
      <circle id="Ellipse_3-77" data-name="Ellipse 3" cx="5" cy="5" r="5" transform="translate(961 517)" fill="#e6f4f1"/>
    </g>
    <g transform="translate(-601 -367)">
      <circle id="Ellipse_3-78" data-name="Ellipse 3" cx="5" cy="5" r="5" transform="translate(961 517)" fill="#e6f4f1"/>
    </g>
    <g transform="translate(-961 -337)">
      <circle id="Ellipse_3-79" data-name="Ellipse 3" cx="5" cy="5" r="5" transform="translate(961 517)" fill="#e6f4f1"/>
    </g>
    <g transform="translate(-931 -337)">
      <circle id="Ellipse_3-80" data-name="Ellipse 3" cx="5" cy="5" r="5" transform="translate(961 517)" fill="#e6f4f1"/>
    </g>
    <g transform="translate(-901 -337)">
      <circle id="Ellipse_3-81" data-name="Ellipse 3" cx="5" cy="5" r="5" transform="translate(961 517)" fill="#e6f4f1"/>
    </g>
    <g transform="translate(-871 -337)">
      <circle id="Ellipse_3-82" data-name="Ellipse 3" cx="5" cy="5" r="5" transform="translate(961 517)" fill="#e6f4f1"/>
    </g>
    <g transform="translate(-841 -337)">
      <circle id="Ellipse_3-83" data-name="Ellipse 3" cx="5" cy="5" r="5" transform="translate(961 517)" fill="#e6f4f1"/>
    </g>
    <g transform="translate(-811 -337)">
      <circle id="Ellipse_3-84" data-name="Ellipse 3" cx="5" cy="5" r="5" transform="translate(961 517)" fill="#e6f4f1"/>
    </g>
    <g transform="translate(-781 -337)">
      <circle id="Ellipse_3-85" data-name="Ellipse 3" cx="5" cy="5" r="5" transform="translate(961 517)" fill="#e6f4f1"/>
    </g>
    <g transform="translate(-751 -337)">
      <circle id="Ellipse_3-86" data-name="Ellipse 3" cx="5" cy="5" r="5" transform="translate(961 517)" fill="#e6f4f1"/>
    </g>
    <g transform="translate(-721 -337)">
      <circle id="Ellipse_3-87" data-name="Ellipse 3" cx="5" cy="5" r="5" transform="translate(961 517)" fill="#e6f4f1"/>
    </g>
    <g transform="translate(-691 -337)">
      <circle id="Ellipse_3-88" data-name="Ellipse 3" cx="5" cy="5" r="5" transform="translate(961 517)" fill="#e6f4f1"/>
    </g>
    <g transform="translate(-661 -337)">
      <circle id="Ellipse_3-89" data-name="Ellipse 3" cx="5" cy="5" r="5" transform="translate(961 517)" fill="#e6f4f1"/>
    </g>
    <g transform="translate(-631 -337)">
      <circle id="Ellipse_3-90" data-name="Ellipse 3" cx="5" cy="5" r="5" transform="translate(961 517)" fill="#e6f4f1"/>
    </g>
    <g transform="translate(-601 -337)">
      <circle id="Ellipse_3-91" data-name="Ellipse 3" cx="5" cy="5" r="5" transform="translate(961 517)" fill="#e6f4f1"/>
    </g>
    <g transform="translate(-961 -307)">
      <circle id="Ellipse_3-92" data-name="Ellipse 3" cx="5" cy="5" r="5" transform="translate(961 517)" fill="#e6f4f1"/>
    </g>
    <g transform="translate(-931 -307)">
      <circle id="Ellipse_3-93" data-name="Ellipse 3" cx="5" cy="5" r="5" transform="translate(961 517)" fill="#e6f4f1"/>
    </g>
    <g transform="translate(-901 -307)">
      <circle id="Ellipse_3-94" data-name="Ellipse 3" cx="5" cy="5" r="5" transform="translate(961 517)" fill="#e6f4f1"/>
    </g>
    <g transform="translate(-871 -307)">
      <circle id="Ellipse_3-95" data-name="Ellipse 3" cx="5" cy="5" r="5" transform="translate(961 517)" fill="#e6f4f1"/>
    </g>
    <g transform="translate(-841 -307)">
      <circle id="Ellipse_3-96" data-name="Ellipse 3" cx="5" cy="5" r="5" transform="translate(961 517)" fill="#e6f4f1"/>
    </g>
    <g transform="translate(-811 -307)">
      <circle id="Ellipse_3-97" data-name="Ellipse 3" cx="5" cy="5" r="5" transform="translate(961 517)" fill="#e6f4f1"/>
    </g>
    <g transform="translate(-781 -307)">
      <circle id="Ellipse_3-98" data-name="Ellipse 3" cx="5" cy="5" r="5" transform="translate(961 517)" fill="#e6f4f1"/>
    </g>
    <g transform="translate(-751 -307)">
      <circle id="Ellipse_3-99" data-name="Ellipse 3" cx="5" cy="5" r="5" transform="translate(961 517)" fill="#e6f4f1"/>
    </g>
    <g transform="translate(-721 -307)">
      <circle id="Ellipse_3-100" data-name="Ellipse 3" cx="5" cy="5" r="5" transform="translate(961 517)" fill="#e6f4f1"/>
    </g>
    <g transform="translate(-691 -307)">
      <circle id="Ellipse_3-101" data-name="Ellipse 3" cx="5" cy="5" r="5" transform="translate(961 517)" fill="#e6f4f1"/>
    </g>
    <g transform="translate(-661 -307)">
      <circle id="Ellipse_3-102" data-name="Ellipse 3" cx="5" cy="5" r="5" transform="translate(961 517)" fill="#e6f4f1"/>
    </g>
    <g transform="translate(-631 -307)">
      <circle id="Ellipse_3-103" data-name="Ellipse 3" cx="5" cy="5" r="5" transform="translate(961 517)" fill="#e6f4f1"/>
    </g>
    <g transform="translate(-601 -307)">
      <circle id="Ellipse_3-104" data-name="Ellipse 3" cx="5" cy="5" r="5" transform="translate(961 517)" fill="#e6f4f1"/>
    </g>
    <g transform="translate(-961 -277)">
      <circle id="Ellipse_3-105" data-name="Ellipse 3" cx="5" cy="5" r="5" transform="translate(961 517)" fill="#e6f4f1"/>
    </g>
    <g transform="translate(-931 -277)">
      <circle id="Ellipse_3-106" data-name="Ellipse 3" cx="5" cy="5" r="5" transform="translate(961 517)" fill="#e6f4f1"/>
    </g>
    <g transform="translate(-901 -277)">
      <circle id="Ellipse_3-107" data-name="Ellipse 3" cx="5" cy="5" r="5" transform="translate(961 517)" fill="#e6f4f1"/>
    </g>
    <g transform="translate(-871 -277)">
      <circle id="Ellipse_3-108" data-name="Ellipse 3" cx="5" cy="5" r="5" transform="translate(961 517)" fill="#e6f4f1"/>
    </g>
    <g transform="translate(-841 -277)">
      <circle id="Ellipse_3-109" data-name="Ellipse 3" cx="5" cy="5" r="5" transform="translate(961 517)" fill="#e6f4f1"/>
    </g>
    <g transform="translate(-811 -277)">
      <circle id="Ellipse_3-110" data-name="Ellipse 3" cx="5" cy="5" r="5" transform="translate(961 517)" fill="#e6f4f1"/>
    </g>
    <g transform="translate(-781 -277)">
      <circle id="Ellipse_3-111" data-name="Ellipse 3" cx="5" cy="5" r="5" transform="translate(961 517)" fill="#e6f4f1"/>
    </g>
    <g transform="translate(-751 -277)">
      <circle id="Ellipse_3-112" data-name="Ellipse 3" cx="5" cy="5" r="5" transform="translate(961 517)" fill="#e6f4f1"/>
    </g>
    <g transform="translate(-721 -277)">
      <circle id="Ellipse_3-113" data-name="Ellipse 3" cx="5" cy="5" r="5" transform="translate(961 517)" fill="#e6f4f1"/>
    </g>
    <g transform="translate(-691 -277)">
      <circle id="Ellipse_3-114" data-name="Ellipse 3" cx="5" cy="5" r="5" transform="translate(961 517)" fill="#e6f4f1"/>
    </g>
    <g transform="translate(-661 -277)">
      <circle id="Ellipse_3-115" data-name="Ellipse 3" cx="5" cy="5" r="5" transform="translate(961 517)" fill="#e6f4f1"/>
    </g>
    <g transform="translate(-631 -277)">
      <circle id="Ellipse_3-116" data-name="Ellipse 3" cx="5" cy="5" r="5" transform="translate(961 517)" fill="#e6f4f1"/>
    </g>
    <g transform="translate(-601 -277)">
      <circle id="Ellipse_3-117" data-name="Ellipse 3" cx="5" cy="5" r="5" transform="translate(961 517)" fill="#e6f4f1"/>
    </g>
    <g transform="translate(-961 -247)">
      <circle id="Ellipse_3-118" data-name="Ellipse 3" cx="5" cy="5" r="5" transform="translate(961 517)" fill="#e6f4f1"/>
    </g>
    <g transform="translate(-931 -247)">
      <circle id="Ellipse_3-119" data-name="Ellipse 3" cx="5" cy="5" r="5" transform="translate(961 517)" fill="#e6f4f1"/>
    </g>
    <g transform="translate(-901 -247)">
      <circle id="Ellipse_3-120" data-name="Ellipse 3" cx="5" cy="5" r="5" transform="translate(961 517)" fill="#e6f4f1"/>
    </g>
    <g transform="translate(-871 -247)">
      <circle id="Ellipse_3-121" data-name="Ellipse 3" cx="5" cy="5" r="5" transform="translate(961 517)" fill="#e6f4f1"/>
    </g>
    <g transform="translate(-841 -247)">
      <circle id="Ellipse_3-122" data-name="Ellipse 3" cx="5" cy="5" r="5" transform="translate(961 517)" fill="#e6f4f1"/>
    </g>
    <g transform="translate(-811 -247)">
      <circle id="Ellipse_3-123" data-name="Ellipse 3" cx="5" cy="5" r="5" transform="translate(961 517)" fill="#e6f4f1"/>
    </g>
    <g transform="translate(-781 -247)">
      <circle id="Ellipse_3-124" data-name="Ellipse 3" cx="5" cy="5" r="5" transform="translate(961 517)" fill="#e6f4f1"/>
    </g>
    <g transform="translate(-751 -247)">
      <circle id="Ellipse_3-125" data-name="Ellipse 3" cx="5" cy="5" r="5" transform="translate(961 517)" fill="#e6f4f1"/>
    </g>
    <g transform="translate(-721 -247)">
      <circle id="Ellipse_3-126" data-name="Ellipse 3" cx="5" cy="5" r="5" transform="translate(961 517)" fill="#e6f4f1"/>
    </g>
    <g transform="translate(-691 -247)">
      <circle id="Ellipse_3-127" data-name="Ellipse 3" cx="5" cy="5" r="5" transform="translate(961 517)" fill="#e6f4f1"/>
    </g>
    <g transform="translate(-661 -247)">
      <circle id="Ellipse_3-128" data-name="Ellipse 3" cx="5" cy="5" r="5" transform="translate(961 517)" fill="#e6f4f1"/>
    </g>
    <g transform="translate(-631 -247)">
      <circle id="Ellipse_3-129" data-name="Ellipse 3" cx="5" cy="5" r="5" transform="translate(961 517)" fill="#e6f4f1"/>
    </g>
    <g transform="translate(-601 -247)">
      <circle id="Ellipse_3-130" data-name="Ellipse 3" cx="5" cy="5" r="5" transform="translate(961 517)" fill="#e6f4f1"/>
    </g>
    <g transform="translate(-961 -217)">
      <circle id="Ellipse_3-131" data-name="Ellipse 3" cx="5" cy="5" r="5" transform="translate(961 517)" fill="#e6f4f1"/>
    </g>
    <g transform="translate(-931 -217)">
      <circle id="Ellipse_3-132" data-name="Ellipse 3" cx="5" cy="5" r="5" transform="translate(961 517)" fill="#e6f4f1"/>
    </g>
    <g transform="translate(-901 -217)">
      <circle id="Ellipse_3-133" data-name="Ellipse 3" cx="5" cy="5" r="5" transform="translate(961 517)" fill="#e6f4f1"/>
    </g>
    <g transform="translate(-871 -217)">
      <circle id="Ellipse_3-134" data-name="Ellipse 3" cx="5" cy="5" r="5" transform="translate(961 517)" fill="#e6f4f1"/>
    </g>
    <g transform="translate(-841 -217)">
      <circle id="Ellipse_3-135" data-name="Ellipse 3" cx="5" cy="5" r="5" transform="translate(961 517)" fill="#e6f4f1"/>
    </g>
    <g transform="translate(-811 -217)">
      <circle id="Ellipse_3-136" data-name="Ellipse 3" cx="5" cy="5" r="5" transform="translate(961 517)" fill="#e6f4f1"/>
    </g>
    <g transform="translate(-781 -217)">
      <circle id="Ellipse_3-137" data-name="Ellipse 3" cx="5" cy="5" r="5" transform="translate(961 517)" fill="#e6f4f1"/>
    </g>
    <g transform="translate(-751 -217)">
      <circle id="Ellipse_3-138" data-name="Ellipse 3" cx="5" cy="5" r="5" transform="translate(961 517)" fill="#e6f4f1"/>
    </g>
    <g transform="translate(-721 -217)">
      <circle id="Ellipse_3-139" data-name="Ellipse 3" cx="5" cy="5" r="5" transform="translate(961 517)" fill="#e6f4f1"/>
    </g>
    <g transform="translate(-691 -217)">
      <circle id="Ellipse_3-140" data-name="Ellipse 3" cx="5" cy="5" r="5" transform="translate(961 517)" fill="#e6f4f1"/>
    </g>
    <g transform="translate(-661 -217)">
      <circle id="Ellipse_3-141" data-name="Ellipse 3" cx="5" cy="5" r="5" transform="translate(961 517)" fill="#e6f4f1"/>
    </g>
    <g transform="translate(-631 -217)">
      <circle id="Ellipse_3-142" data-name="Ellipse 3" cx="5" cy="5" r="5" transform="translate(961 517)" fill="#e6f4f1"/>
    </g>
    <g transform="translate(-601 -217)">
      <circle id="Ellipse_3-143" data-name="Ellipse 3" cx="5" cy="5" r="5" transform="translate(961 517)" fill="#e6f4f1"/>
    </g>
    <g transform="translate(-961 -187)">
      <circle id="Ellipse_3-144" data-name="Ellipse 3" cx="5" cy="5" r="5" transform="translate(961 517)" fill="#e6f4f1"/>
    </g>
    <g transform="translate(-931 -187)">
      <circle id="Ellipse_3-145" data-name="Ellipse 3" cx="5" cy="5" r="5" transform="translate(961 517)" fill="#e6f4f1"/>
    </g>
    <g transform="translate(-901 -187)">
      <circle id="Ellipse_3-146" data-name="Ellipse 3" cx="5" cy="5" r="5" transform="translate(961 517)" fill="#e6f4f1"/>
    </g>
    <g transform="translate(-871 -187)">
      <circle id="Ellipse_3-147" data-name="Ellipse 3" cx="5" cy="5" r="5" transform="translate(961 517)" fill="#e6f4f1"/>
    </g>
    <g transform="translate(-841 -187)">
      <circle id="Ellipse_3-148" data-name="Ellipse 3" cx="5" cy="5" r="5" transform="translate(961 517)" fill="#e6f4f1"/>
    </g>
    <g transform="translate(-811 -187)">
      <circle id="Ellipse_3-149" data-name="Ellipse 3" cx="5" cy="5" r="5" transform="translate(961 517)" fill="#e6f4f1"/>
    </g>
    <g transform="translate(-781 -187)">
      <circle id="Ellipse_3-150" data-name="Ellipse 3" cx="5" cy="5" r="5" transform="translate(961 517)" fill="#e6f4f1"/>
    </g>
    <g transform="translate(-751 -187)">
      <circle id="Ellipse_3-151" data-name="Ellipse 3" cx="5" cy="5" r="5" transform="translate(961 517)" fill="#e6f4f1"/>
    </g>
    <g transform="translate(-721 -187)">
      <circle id="Ellipse_3-152" data-name="Ellipse 3" cx="5" cy="5" r="5" transform="translate(961 517)" fill="#e6f4f1"/>
    </g>
    <g transform="translate(-691 -187)">
      <circle id="Ellipse_3-153" data-name="Ellipse 3" cx="5" cy="5" r="5" transform="translate(961 517)" fill="#e6f4f1"/>
    </g>
    <g transform="translate(-661 -187)">
      <circle id="Ellipse_3-154" data-name="Ellipse 3" cx="5" cy="5" r="5" transform="translate(961 517)" fill="#e6f4f1"/>
    </g>
    <g transform="translate(-631 -187)">
      <circle id="Ellipse_3-155" data-name="Ellipse 3" cx="5" cy="5" r="5" transform="translate(961 517)" fill="#e6f4f1"/>
    </g>
    <g transform="translate(-601 -187)">
      <circle id="Ellipse_3-156" data-name="Ellipse 3" cx="5" cy="5" r="5" transform="translate(961 517)" fill="#e6f4f1"/>
    </g>
    <g transform="translate(-961 -157)">
      <circle id="Ellipse_3-157" data-name="Ellipse 3" cx="5" cy="5" r="5" transform="translate(961 517)" fill="#e6f4f1"/>
    </g>
    <g transform="translate(-931 -157)">
      <circle id="Ellipse_3-158" data-name="Ellipse 3" cx="5" cy="5" r="5" transform="translate(961 517)" fill="#e6f4f1"/>
    </g>
    <g transform="translate(-901 -157)">
      <circle id="Ellipse_3-159" data-name="Ellipse 3" cx="5" cy="5" r="5" transform="translate(961 517)" fill="#e6f4f1"/>
    </g>
    <g transform="translate(-871 -157)">
      <circle id="Ellipse_3-160" data-name="Ellipse 3" cx="5" cy="5" r="5" transform="translate(961 517)" fill="#e6f4f1"/>
    </g>
    <g transform="translate(-841 -157)">
      <circle id="Ellipse_3-161" data-name="Ellipse 3" cx="5" cy="5" r="5" transform="translate(961 517)" fill="#e6f4f1"/>
    </g>
    <g transform="translate(-811 -157)">
      <circle id="Ellipse_3-162" data-name="Ellipse 3" cx="5" cy="5" r="5" transform="translate(961 517)" fill="#e6f4f1"/>
    </g>
    <g transform="translate(-781 -157)">
      <circle id="Ellipse_3-163" data-name="Ellipse 3" cx="5" cy="5" r="5" transform="translate(961 517)" fill="#e6f4f1"/>
    </g>
    <g transform="translate(-751 -157)">
      <circle id="Ellipse_3-164" data-name="Ellipse 3" cx="5" cy="5" r="5" transform="translate(961 517)" fill="#e6f4f1"/>
    </g>
    <g transform="translate(-721 -157)">
      <circle id="Ellipse_3-165" data-name="Ellipse 3" cx="5" cy="5" r="5" transform="translate(961 517)" fill="#e6f4f1"/>
    </g>
    <g transform="translate(-691 -157)">
      <circle id="Ellipse_3-166" data-name="Ellipse 3" cx="5" cy="5" r="5" transform="translate(961 517)" fill="#e6f4f1"/>
    </g>
    <g transform="translate(-661 -157)">
      <circle id="Ellipse_3-167" data-name="Ellipse 3" cx="5" cy="5" r="5" transform="translate(961 517)" fill="#e6f4f1"/>
    </g>
    <g transform="translate(-631 -157)">
      <circle id="Ellipse_3-168" data-name="Ellipse 3" cx="5" cy="5" r="5" transform="translate(961 517)" fill="#e6f4f1"/>
    </g>
    <g transform="translate(-601 -157)">
      <circle id="Ellipse_3-169" data-name="Ellipse 3" cx="5" cy="5" r="5" transform="translate(961 517)" fill="#e6f4f1"/>
    </g>
    <g transform="translate(-961 -127)">
      <circle id="Ellipse_3-170" data-name="Ellipse 3" cx="5" cy="5" r="5" transform="translate(961 517)" fill="#e6f4f1"/>
    </g>
    <g transform="translate(-931 -127)">
      <circle id="Ellipse_3-171" data-name="Ellipse 3" cx="5" cy="5" r="5" transform="translate(961 517)" fill="#e6f4f1"/>
    </g>
    <g transform="translate(-901 -127)">
      <circle id="Ellipse_3-172" data-name="Ellipse 3" cx="5" cy="5" r="5" transform="translate(961 517)" fill="#e6f4f1"/>
    </g>
    <g transform="translate(-871 -127)">
      <circle id="Ellipse_3-173" data-name="Ellipse 3" cx="5" cy="5" r="5" transform="translate(961 517)" fill="#e6f4f1"/>
    </g>
    <g transform="translate(-841 -127)">
      <circle id="Ellipse_3-174" data-name="Ellipse 3" cx="5" cy="5" r="5" transform="translate(961 517)" fill="#e6f4f1"/>
    </g>
    <g transform="translate(-811 -127)">
      <circle id="Ellipse_3-175" data-name="Ellipse 3" cx="5" cy="5" r="5" transform="translate(961 517)" fill="#e6f4f1"/>
    </g>
    <g transform="translate(-781 -127)">
      <circle id="Ellipse_3-176" data-name="Ellipse 3" cx="5" cy="5" r="5" transform="translate(961 517)" fill="#e6f4f1"/>
    </g>
    <g transform="translate(-751 -127)">
      <circle id="Ellipse_3-177" data-name="Ellipse 3" cx="5" cy="5" r="5" transform="translate(961 517)" fill="#e6f4f1"/>
    </g>
    <g transform="translate(-721 -127)">
      <circle id="Ellipse_3-178" data-name="Ellipse 3" cx="5" cy="5" r="5" transform="translate(961 517)" fill="#e6f4f1"/>
    </g>
    <g transform="translate(-691 -127)">
      <circle id="Ellipse_3-179" data-name="Ellipse 3" cx="5" cy="5" r="5" transform="translate(961 517)" fill="#e6f4f1"/>
    </g>
    <g transform="translate(-661 -127)">
      <circle id="Ellipse_3-180" data-name="Ellipse 3" cx="5" cy="5" r="5" transform="translate(961 517)" fill="#e6f4f1"/>
    </g>
    <g transform="translate(-631 -127)">
      <circle id="Ellipse_3-181" data-name="Ellipse 3" cx="5" cy="5" r="5" transform="translate(961 517)" fill="#e6f4f1"/>
    </g>
    <g transform="translate(-601 -127)">
      <circle id="Ellipse_3-182" data-name="Ellipse 3" cx="5" cy="5" r="5" transform="translate(961 517)" fill="#e6f4f1"/>
    </g>
  </g>
</svg>
