<svg xmlns="http://www.w3.org/2000/svg" width="31.992" height="26" viewBox="0 0 31.992 26">
  <path id="Path_245" data-name="Path 245" d="M550.242,595.849c12.073,0,18.675-10,18.675-18.675q0-.426-.018-.848a13.346,13.346,0,0,0,3.274-3.4,13.088,13.088,0,0,1-3.769,1.033,6.587,6.587,0,0,0,2.886-3.63,13.164,13.164,0,0,1-4.168,1.593,6.569,6.569,0,0,0-11.185,5.986,18.637,18.637,0,0,1-13.53-6.858,6.569,6.569,0,0,0,2.032,8.763,6.515,6.515,0,0,1-2.973-.821c0,.028,0,.054,0,.084a6.565,6.565,0,0,0,5.266,6.434,6.554,6.554,0,0,1-2.964.113,6.57,6.57,0,0,0,6.132,4.559,13.168,13.168,0,0,1-8.152,2.81,13.324,13.324,0,0,1-1.566-.091,18.579,18.579,0,0,0,10.061,2.948" transform="translate(-540.181 -569.85)" fill="#394855"/>
</svg>
