<svg xmlns="http://www.w3.org/2000/svg" width="80.337" height="26" viewBox="0 0 80.337 26">
  <g id="g4158" transform="translate(-81.166 -105.048)">
    <path id="polygon9" d="M440.037,135.893h-6.53l4.085-25.166h6.53Z" transform="translate(-324.052 -5.221)" fill="#00579f"/>
    <path id="path11" d="M584.768,106.119a16.141,16.141,0,0,0-5.857-1.072c-6.449,0-10.99,3.427-11.018,8.327-.054,3.615,3.251,5.623,5.723,6.828,2.526,1.232,3.385,2.036,3.385,3.133-.026,1.686-2.041,2.463-3.922,2.463a13.034,13.034,0,0,1-6.127-1.339l-.86-.4-.914,5.65a19.935,19.935,0,0,0,7.283,1.339c6.852,0,11.313-3.374,11.366-8.6.026-2.865-1.719-5.061-5.482-6.854-2.284-1.152-3.683-1.928-3.683-3.106.027-1.071,1.183-2.168,3.761-2.168a11.128,11.128,0,0,1,4.864.964l.591.267.888-5.435Z" transform="translate(-445.174 0)" fill="#00579f"/>
    <path id="path13" d="M800.625,126.977c.538-1.446,2.607-7.041,2.607-7.041-.027.054.537-1.472.859-2.409l.456,2.168s1.237,6.024,1.505,7.282Zm8.061-16.25h-5.051a3.223,3.223,0,0,0-3.413,2.088l-9.7,23.077h6.852s1.128-3.106,1.371-3.775h8.384c.188.884.779,3.775.779,3.775h6.046l-5.268-25.165Z" transform="translate(-652.452 -5.221)" fill="#00579f"/>
    <path id="path15" d="M181.958,110.727l-6.4,17.161-.7-3.48a19.28,19.28,0,0,0-9.029-10.549l5.858,22.007H178.6l10.264-25.139Z" transform="translate(-77.845 -5.221)" fill="#00579f"/>
    <path id="path17" d="M91.78,110.727H81.273l-.107.51c8.2,2.1,13.624,7.148,15.854,13.22L94.736,112.85c-.376-1.613-1.532-2.07-2.956-2.123Z" transform="translate(0 -5.221)" fill="#faa61a"/>
  </g>
</svg>
