<svg id="Group_103" data-name="Group 103" xmlns="http://www.w3.org/2000/svg" width="37.134" height="26" viewBox="0 0 37.134 26">
  <path id="Path_246" data-name="Path 246" d="M36.369,4.068A4.653,4.653,0,0,0,33.1.8C30.191,0,18.567,0,18.567,0S6.944,0,4.038.765a4.748,4.748,0,0,0-3.273,3.3C0,6.974,0,13,0,13s0,6.056.765,8.932A4.653,4.653,0,0,0,4.038,25.2c2.936.8,14.529.8,14.529.8s11.624,0,14.529-.765a4.653,4.653,0,0,0,3.273-3.273c.765-2.906.765-8.932.765-8.932S37.165,6.974,36.369,4.068Z" fill="#394855"/>
  <path id="Path_247" data-name="Path 247" d="M48.6,35.434l9.666-5.567L48.6,24.3Z" transform="translate(-33.734 -16.867)" fill="#fff"/>
</svg>
